REM DIRINDEX 1\5,1\2\6,1\2\7,1\3\8,1\3\9,1\4\10,1\4\11,1\4\12
REM DIRNAME folder01,folder02,folder03,folder04,folder05,folder06,folder07,folder08,folder09,folder10,folder11,folder12
TITLE ""
FILE "EJE_DB3000_5th_5C_11.mp3" MP3
  TRACK 01 AUDIO
    TITLE "0:"
    INDEX 01 00:00:00
  TRACK 02 AUDIO
    TITLE "10:cjc026_10527"
    INDEX 01 00:00:05
  TRACK 03 AUDIO
    TITLE "0:"
    INDEX 01 00:00:70
  TRACK 04 AUDIO
    TITLE "11:cjc026_10528"
    INDEX 01 00:01:22
  TRACK 05 AUDIO
    TITLE "0:"
    INDEX 01 00:02:22
  TRACK 06 AUDIO
    TITLE "12:cjc026_10529"
    INDEX 01 00:02:47
  TRACK 07 AUDIO
    TITLE "0:"
    INDEX 01 00:03:37
  TRACK 08 AUDIO
    TITLE "10:cjc026_10530"
    INDEX 01 00:03:64
  TRACK 09 AUDIO
    TITLE "0:"
    INDEX 01 00:04:56
  TRACK 10 AUDIO
    TITLE "11:cjc026_10531"
    INDEX 01 00:05:05
  TRACK 11 AUDIO
    TITLE "0:"
    INDEX 01 00:05:73
  TRACK 12 AUDIO
    TITLE "12:cjc026_10532"
    INDEX 01 00:06:26
  TRACK 13 AUDIO
    TITLE "0:"
    INDEX 01 00:07:15
  TRACK 14 AUDIO
    TITLE "10:cjc026_10533"
    INDEX 01 00:07:41
  TRACK 15 AUDIO
    TITLE "0:"
    INDEX 01 00:08:26
  TRACK 16 AUDIO
    TITLE "11:cjc026_10534"
    INDEX 01 00:08:52
  TRACK 17 AUDIO
    TITLE "0:"
    INDEX 01 00:09:51
  TRACK 18 AUDIO
    TITLE "12:cjc026_10535"
    INDEX 01 00:10:02
  TRACK 19 AUDIO
    TITLE "0:"
    INDEX 01 00:10:61
  TRACK 20 AUDIO
    TITLE "10:cjc026_10536"
    INDEX 01 00:11:11
  TRACK 21 AUDIO
    TITLE "0:"
    INDEX 01 00:12:20
  TRACK 22 AUDIO
    TITLE "11:cjc026_10537"
    INDEX 01 00:12:42
  TRACK 23 AUDIO
    TITLE "0:"
    INDEX 01 00:13:55
  TRACK 24 AUDIO
    TITLE "12:cjc026_10538"
    INDEX 01 00:14:06
  TRACK 25 AUDIO
    TITLE "0:"
    INDEX 01 00:15:13
  TRACK 26 AUDIO
    TITLE "10:cjc026_10539"
    INDEX 01 00:15:40
  TRACK 27 AUDIO
    TITLE "0:"
    INDEX 01 00:16:42
  TRACK 28 AUDIO
    TITLE "11:cjc026_10540"
    INDEX 01 00:16:69
  TRACK 29 AUDIO
    TITLE "0:"
    INDEX 01 00:17:69
  TRACK 30 AUDIO
    TITLE "12:cjc026_10541"
    INDEX 01 00:18:21
  TRACK 31 AUDIO
    TITLE "0:"
    INDEX 01 00:19:22
  TRACK 32 AUDIO
    TITLE "10:cjc026_10542"
    INDEX 01 00:19:50
  TRACK 33 AUDIO
    TITLE "0:"
    INDEX 01 00:20:51
  TRACK 34 AUDIO
    TITLE "11:cjc026_10543"
    INDEX 01 00:21:04
  TRACK 35 AUDIO
    TITLE "0:"
    INDEX 01 00:22:25
  TRACK 36 AUDIO
    TITLE "12:cjc026_10544"
    INDEX 01 00:22:50
  TRACK 37 AUDIO
    TITLE "0:"
    INDEX 01 00:23:50
  TRACK 38 AUDIO
    TITLE "10:cjc026_10545"
    INDEX 01 00:24:02
  TRACK 39 AUDIO
    TITLE "0:"
    INDEX 01 00:25:05
  TRACK 40 AUDIO
    TITLE "11:cjc026_10546"
    INDEX 01 00:25:29
  TRACK 41 AUDIO
    TITLE "0:"
    INDEX 01 00:26:26
  TRACK 42 AUDIO
    TITLE "12:cjc026_10547"
    INDEX 01 00:26:52
  TRACK 43 AUDIO
    TITLE "0:"
    INDEX 01 00:27:51
  TRACK 44 AUDIO
    TITLE "10:cjc026_10548"
    INDEX 01 00:28:06
  TRACK 45 AUDIO
    TITLE "0:"
    INDEX 01 00:29:11
  TRACK 46 AUDIO
    TITLE "11:cjc026_10549"
    INDEX 01 00:29:40
  TRACK 47 AUDIO
    TITLE "0:"
    INDEX 01 00:30:59
  TRACK 48 AUDIO
    TITLE "12:cjc026_10550"
    INDEX 01 00:31:12
  TRACK 49 AUDIO
    TITLE "0:"
    INDEX 01 00:32:17
  TRACK 50 AUDIO
    TITLE "10:cjc026_10551"
    INDEX 01 00:32:47
  TRACK 51 AUDIO
    TITLE "0:"
    INDEX 01 00:33:42
  TRACK 52 AUDIO
    TITLE "11:cjc026_10552"
    INDEX 01 00:33:71
  TRACK 53 AUDIO
    TITLE "0:"
    INDEX 01 00:35:08
  TRACK 54 AUDIO
    TITLE "12:cjc026_10553"
    INDEX 01 00:35:33
  TRACK 55 AUDIO
    TITLE "0:"
    INDEX 01 00:36:31
  TRACK 56 AUDIO
    TITLE "10:cjc026_10554"
    INDEX 01 00:36:60
  TRACK 57 AUDIO
    TITLE "0:"
    INDEX 01 00:37:48
  TRACK 58 AUDIO
    TITLE "11:cjc026_10555"
    INDEX 01 00:38:00
  TRACK 59 AUDIO
    TITLE "0:"
    INDEX 01 00:39:00
  TRACK 60 AUDIO
    TITLE "12:cjc026_10556"
    INDEX 01 00:39:27
  TRACK 61 AUDIO
    TITLE "0:"
    INDEX 01 00:40:17
  TRACK 62 AUDIO
    TITLE "10:cjc026_10557"
    INDEX 01 00:40:46
  TRACK 63 AUDIO
    TITLE "0:"
    INDEX 01 00:41:44
  TRACK 64 AUDIO
    TITLE "11:cjc026_10558"
    INDEX 01 00:41:69
  TRACK 65 AUDIO
    TITLE "0:"
    INDEX 01 00:43:07
  TRACK 66 AUDIO
    TITLE "12:cjc026_10559"
    INDEX 01 00:43:37
  TRACK 67 AUDIO
    TITLE "0:"
    INDEX 01 00:44:34
  TRACK 68 AUDIO
    TITLE "10:cjc026_10560"
    INDEX 01 00:44:61
  TRACK 69 AUDIO
    TITLE "0:"
    INDEX 01 00:45:49
  TRACK 70 AUDIO
    TITLE "11:cjc026_10561"
    INDEX 01 00:46:02
  TRACK 71 AUDIO
    TITLE "0:"
    INDEX 01 00:46:64
  TRACK 72 AUDIO
    TITLE "12:cjc026_10562"
    INDEX 01 00:47:19
  TRACK 73 AUDIO
    TITLE "0:"
    INDEX 01 00:48:06
  TRACK 74 AUDIO
    TITLE "10:cjc026_10563"
    INDEX 01 00:48:36
  TRACK 75 AUDIO
    TITLE "0:"
    INDEX 01 00:49:31
  TRACK 76 AUDIO
    TITLE "11:cjc026_10564"
    INDEX 01 00:49:59
  TRACK 77 AUDIO
    TITLE "0:"
    INDEX 01 00:51:30
  TRACK 78 AUDIO
    TITLE "12:cjc026_10565"
    INDEX 01 00:51:58
  TRACK 79 AUDIO
    TITLE "0:"
    INDEX 01 00:52:53
  TRACK 80 AUDIO
    TITLE "10:cjc026_10566"
    INDEX 01 00:53:06
  TRACK 81 AUDIO
    TITLE "0:"
    INDEX 01 00:54:11
  TRACK 82 AUDIO
    TITLE "11:cjc026_10567"
    INDEX 01 00:54:36
  TRACK 83 AUDIO
    TITLE "0:"
    INDEX 01 00:55:55
  TRACK 84 AUDIO
    TITLE "12:cjc026_10568"
    INDEX 01 00:56:04
  TRACK 85 AUDIO
    TITLE "0:"
    INDEX 01 00:57:09
